<svg xmlns="http://www.w3.org/2000/svg" width="80" height="80" fill="none"><g fill="#fff" stroke="#0d0e13" stroke-width=".1" clip-path="url(#a)"><path d="M44.937 45.245v.05h1.625a.83.83 0 0 1 .825.825.824.824 0 0 1-.825.825H21.439a.83.83 0 0 1-.825-.825c0-.454.366-.825.825-.825h1.609V28.051a.82.82 0 0 1 .351-.675L35.084 19.2a.82.82 0 0 1 .474-.149.83.83 0 0 1 .825.825v4.735l.021.015 8.192 5.933a.84.84 0 0 1 .34.671zM24.718 28.469l-.021.015v16.81h10.031V21.463l-.079.055zm11.745-1.761-.079-.057v18.648h6.903V31.65l-.021-.015z"/><use href="#b"/><use href="#c"/><path d="M39.157 38.48h1.351a.32.32 0 0 1 .322.322v1.351a.32.32 0 0 1-.322.322h-1.351a.32.32 0 0 1-.322-.322v-1.351c0-.18.147-.322.322-.322zm0 3.386h1.351a.32.32 0 0 1 .322.322v1.351a.32.32 0 0 1-.322.322h-1.351a.32.32 0 0 1-.322-.322v-1.351c0-.175.147-.322.322-.322zm-8.104 0h1.351a.32.32 0 0 1 .322.322v1.351a.32.32 0 0 1-.322.322h-1.351a.32.32 0 0 1-.322-.322v-1.351c0-.175.147-.322.322-.322zm-4.031 0h1.351a.32.32 0 0 1 .322.322v1.351a.32.32 0 0 1-.322.322h-1.351a.32.32 0 0 1-.322-.322v-1.351c0-.175.147-.322.322-.322zm4.031-3.386h1.351a.32.32 0 0 1 .322.322v1.351a.32.32 0 0 1-.322.322h-1.351a.32.32 0 0 1-.322-.322v-1.351c0-.18.147-.322.322-.322zm-4.031 0h1.351a.32.32 0 0 1 .322.322v1.351a.32.32 0 0 1-.322.322h-1.351a.32.32 0 0 1-.322-.322v-1.351c0-.18.147-.322.322-.322zm4.031-3.39h1.351a.32.32 0 0 1 .322.322v1.351a.32.32 0 0 1-.322.322h-1.351a.32.32 0 0 1-.322-.322v-1.351c0-.175.147-.322.322-.322zm-4.031 0h1.351a.32.32 0 0 1 .322.322v1.351a.32.32 0 0 1-.322.322h-1.351a.32.32 0 0 1-.322-.322v-1.351c0-.175.147-.322.322-.322zm4.031-3.385h1.351a.32.32 0 0 1 .322.322v1.351a.32.32 0 0 1-.322.322h-1.351a.32.32 0 0 1-.322-.322v-1.351c0-.18.147-.322.322-.322zm-4.031 0h1.351a.32.32 0 0 1 .322.322v1.351a.32.32 0 0 1-.322.322h-1.351a.32.32 0 0 1-.322-.322v-1.351c0-.18.147-.322.322-.322zm4.031-3.391h1.351a.32.32 0 0 1 .322.322v1.351a.32.32 0 0 1-.322.322h-1.351a.32.32 0 0 1-.322-.322v-1.351c0-.175.147-.322.322-.322zm-4.031 0h1.351a.32.32 0 0 1 .322.322v1.351a.32.32 0 0 1-.322.322h-1.351a.32.32 0 0 1-.322-.322v-1.351c0-.175.147-.322.322-.322zm4.031-3.385h1.351a.32.32 0 0 1 .322.322v1.351a.32.32 0 0 1-.322.322h-1.351a.32.32 0 0 1-.322-.322v-1.351c0-.18.147-.322.322-.322z"/></g><path stroke="#fff" stroke-linejoin="round" stroke-width="2" d="M34 61c14.912 0 27-12.088 27-27S48.912 7 34 7 7 19.088 7 34s12.088 27 27 27z"/><path fill="#ff6314" d="M73.067 55.834c-1.1 8.867-8.367 16.133-17.233 17.233-5.367.667-10.367-.8-14.267-3.667-2.233-1.633-1.7-5.1.967-5.9 10.033-3.033 17.933-10.967 21-21 .8-2.633 4.267-3.167 5.9-.967 2.833 3.933 4.3 8.933 3.633 14.3z"/><defs><path id="b" d="M39.157 31.705h1.351a.32.32 0 0 1 .322.322v1.351a.32.32 0 0 1-.322.322h-1.351a.32.32 0 0 1-.322-.322v-1.351c0-.18.147-.322.322-.322"/><path id="c" d="M39.157 35.09h1.351a.32.32 0 0 1 .322.322v1.351a.32.32 0 0 1-.322.322h-1.351a.32.32 0 0 1-.322-.322v-1.351c0-.175.147-.322.322-.322"/><clipPath id="a"><path fill="#fff" d="M20 19h28v28H20z"/></clipPath></defs></svg>