<svg xmlns="http://www.w3.org/2000/svg" width="157" height="41" fill="none" xmlns:v="https://vecta.io/nano"><g clip-path="url(#A)"><path d="M25.209.563c-9.345 0-17.136 6.755-18.763 15.637-5.252 4.609-7.448 8.901-6.019 11.794.997 2.019 3.6 3.034 7.304 3.034a24.05 24.05 0 0 0 2.101-.107c3.476 4.727 9.073 7.802 15.377 7.802 10.52 0 19.08-8.56 19.08-19.08S35.73.563 25.209.563zm13.308 6.914c-1.343.572-2.883 1.051-4.578 1.418-1.128-3.009-2.719-5.375-4.582-6.807a18.05 18.05 0 0 1 9.16 5.388zM25.691 1.629c2.913.288 5.54 3.174 7.199 7.48-2.234.413-4.68.642-7.199.669V1.629zm-4.589.451c-1.872 1.439-3.469 3.82-4.604 6.823-1.702-.368-3.247-.851-4.596-1.426a18.05 18.05 0 0 1 9.2-5.397zm3.55-.443v8.139c-2.506-.03-4.935-.26-7.152-.671 1.626-4.271 4.212-7.144 7.152-7.468zM7.192 18.734c.197-3.941 1.666-7.55 4.001-10.431 1.441.643 3.113 1.179 4.957 1.585-.862 2.612-1.39 5.625-1.475 8.846H7.192zm8.738 9.993c-2.009.536-3.899.9-5.61 1.088a17.94 17.94 0 0 1-3.148-10.041h7.492c.012 3.238.469 6.285 1.266 8.953zm-14.57-1.193c-1.091-2.208.766-5.868 4.861-9.722-.058.603-.09 1.214-.09 1.831 0 3.781 1.11 7.305 3.015 10.274-4.007.261-6.871-.532-7.785-2.383zm9.68 3.254c1.61-.211 3.354-.566 5.21-1.068 1.134 3.304 2.811 5.933 4.816 7.478-4.03-.952-7.541-3.257-10.026-6.41zm14.652 6.884v-4.211c-.179.232-.406.429-.675.57l-.364.192v3.425c-3.071-.351-5.776-3.57-7.387-8.215a55.46 55.46 0 0 0 1.709-.531l.229.437a.52.52 0 0 0 .46.277c.042 0 .085-.005.127-.016l1.266-.32 1.852 3.511a.52.52 0 0 0 .702.217l.68-.358a.52.52 0 0 0 .277-.458l.016-3.812a6.36 6.36 0 0 0 1.223-.493l1.55-.816 1.762 8.307a.52.52 0 0 0 .288.363c.07.033.146.049.221.049a.52.52 0 0 0 .242-.06l2.112-1.112a.52.52 0 0 0 .274-.398l1.252-10.386 1.839-.968c.628-.33 1.332-1.022 1.881-1.849.441-.664.9-1.583.58-2.19-.332-.63-1.34-.763-2.128-.763s-1.91.144-2.68.55l-1.752.922-9.27-4.85a.52.52 0 0 0-.483.001l-2.112 1.111a.52.52 0 0 0-.135.818l5.849 6.158-1.55.816c-.413.217-.764.453-1.115.742l-3.113-2.12a.52.52 0 0 0-.534-.031l-.68.358a.52.52 0 0 0-.219.702l1.825 3.476-.981.862c-.109.096-.163.23-.169.369-.544.177-1.082.342-1.612.496-.779-2.586-1.232-5.548-1.244-8.671h4.389l-.988-1.04h-3.391c.083-3.162.599-6.11 1.435-8.64 2.327.442 4.875.691 7.504.722v3.513l1.04.544v-4.056c2.642-.028 5.211-.276 7.556-.72.65 1.944 1.109 4.137 1.326 6.482a9.04 9.04 0 0 1 1.038-.069c-.217-2.399-.675-4.635-1.327-6.627 1.838-.405 3.508-.938 4.943-1.577 2.334 2.88 3.803 6.489 3.999 10.428h-3.82a2.78 2.78 0 0 1 .026 1.04h3.814a17.96 17.96 0 0 1-4.282 11.524c-1.345-.575-2.9-1.07-4.611-1.452l-.125 1.036c1.47.334 2.816.751 4 1.231-3.183 3.32-7.616 5.428-12.537 5.558zm.36-15.399l-5.579-5.872 1.262-.664 8.392 4.392-4.076 2.145zm7.43-2.736c.489-.257 1.372-.43 2.196-.43.707 0 1.091.128 1.198.206.014.469-1.013 2.11-2.015 2.636l-2.078 1.094-5.304 2.791-2.158 1.136c-.411.217-.781.358-1.234.473l-3.998 1.01-.184-.524 3.034-2.667a5.29 5.29 0 0 1 1.089-.75l9.452-4.975zm-1.093 4.888l-1.133 9.403-1.263.664-1.68-7.923 4.076-2.145zm-8.845 4.227l-.013 3.089-1.437-2.723 1.45-.366zm-3.031-2.64l-1.411-2.687 2.518 1.714-1.107.973z" fill="#ff6314"/><g fill="#09261d"><path d="M62.504 22.246l-.569-1.717-.615-1.764h-6.267l-.615 1.764-.569 1.717h-3.76l1.717-4.804 1.59-4.155 1.532-3.702 1.567-3.423h3.458l1.555 3.423 1.544 3.702 1.59 4.155 1.718 4.804h-3.876zm-4.34-12.44l-.348.952-.534 1.393-.661 1.741-.731 1.996h4.572l-.72-1.996-.661-1.741-.545-1.393-.371-.952zm10.305-3.644h3.621v16.084h-3.621V6.162zm12.046-.186c2.414 0 4.263.429 5.547 1.288s1.926 2.193 1.926 4.004c0 1.13-.259 2.046-.777 2.75s-1.265 1.257-2.24 1.659l1.021 1.381 1.056 1.625 1.01 1.764.905 1.799h-4.062l-.894-1.601-.928-1.578-.94-1.451-.928-1.242h-1.787v5.872h-3.621V6.394c.789-.155 1.605-.263 2.448-.325l2.263-.093zm.209 3.087l-.708.023-.592.046v4.363h1.021c1.362 0 2.336-.17 2.924-.511s.882-.921.882-1.741c0-.789-.298-1.35-.894-1.683s-1.474-.499-2.634-.499zm15.388-3.087c2.398 0 4.24.422 5.524 1.265s1.926 2.224 1.926 4.143c0 1.934-.649 3.33-1.949 4.189s-3.157 1.288-5.57 1.288h-1.137v5.384h-3.621V6.394c.789-.155 1.625-.263 2.507-.325l2.321-.093zm.232 3.087l-.778.023-.661.046v4.642h1.137c1.253 0 2.197-.17 2.831-.511s.952-.975.952-1.903c0-.449-.081-.82-.244-1.114a1.86 1.86 0 0 0-.696-.708c-.301-.178-.669-.302-1.102-.371s-.913-.104-1.439-.104zm12.928 5.129c0 .789.097 1.501.29 2.135s.472 1.18.836 1.636a3.69 3.69 0 0 0 1.334 1.056c.526.248 1.13.371 1.81.371.666 0 1.265-.124 1.799-.371s.983-.599 1.346-1.056.642-1.002.836-1.636.29-1.346.29-2.135-.097-1.505-.29-2.147-.472-1.191-.836-1.648a3.67 3.67 0 0 0-1.346-1.056c-.534-.248-1.133-.371-1.799-.371-.68 0-1.284.128-1.81.383a3.8 3.8 0 0 0-1.334 1.068 4.85 4.85 0 0 0-.836 1.648c-.193.642-.29 1.35-.29 2.124zm12.278 0c0 1.377-.205 2.588-.615 3.632s-.971 1.919-1.683 2.623a6.91 6.91 0 0 1-2.542 1.59c-.983.356-2.038.534-3.168.534a9 9 0 0 1-3.11-.534c-.974-.356-1.825-.886-2.553-1.59s-1.299-1.578-1.717-2.623-.627-2.255-.627-3.632.217-2.588.65-3.632 1.017-1.922 1.752-2.634a7.19 7.19 0 0 1 2.553-1.601 8.77 8.77 0 0 1 3.052-.534 8.99 8.99 0 0 1 3.11.534 7.07 7.07 0 0 1 2.553 1.601c.728.712 1.3 1.59 1.718 2.634s.627 2.255.627 3.632zm7.728-8.216c2.414 0 4.263.429 5.547 1.288s1.927 2.193 1.927 4.004c0 1.13-.259 2.046-.778 2.75s-1.265 1.257-2.24 1.659l1.022 1.381 1.056 1.625 1.009 1.764.905 1.799h-4.061l-.894-1.601-.928-1.578-.94-1.451-.928-1.242h-1.788v5.872h-3.62V6.394a20.52 20.52 0 0 1 2.448-.325l2.263-.093zm.209 3.087l-.708.023-.592.046v4.363h1.022c1.361 0 2.336-.17 2.924-.511s.882-.921.882-1.741c0-.789-.298-1.35-.894-1.683s-1.473-.499-2.634-.499zm22.49-2.901v3.087h-4.851v12.997h-3.62V9.249h-4.851V6.162h13.322zM53.946 33.496c-1.249 0-2.2-.347-2.855-1.042s-.981-1.681-.981-2.96c0-.636.1-1.203.299-1.702s.473-.92.82-1.264a3.43 3.43 0 0 1 1.242-.782c.48-.177 1.001-.266 1.563-.266.325 0 .621.024.887.072s.499.103.698.166a3.44 3.44 0 0 1 .499.194l.288.155-.499 1.397c-.236-.126-.512-.233-.826-.321a3.94 3.94 0 0 0-1.07-.133 2.36 2.36 0 0 0-.782.133 1.77 1.77 0 0 0-.676.427c-.196.196-.353.449-.471.759s-.177.687-.177 1.131c0 .355.039.685.116.992s.203.571.377.793a1.81 1.81 0 0 0 .682.527c.281.129.621.194 1.02.194.251 0 .477-.015.676-.044l.532-.105c.155-.041.292-.087.41-.139l.322-.144.477 1.386c-.244.148-.587.281-1.031.399s-.957.177-1.541.177zm8.824-.155l-.272-.82-.294-.842h-2.993l-.294.842-.272.82H56.85l.82-2.295.759-1.984.732-1.768.748-1.635h1.652l.743 1.635.737 1.768.759 1.984.82 2.295h-1.85zm-2.073-5.942l-.166.454-.255.665-.316.831-.349.953h2.184l-.344-.953-.316-.831-.261-.665-.177-.454zm7.017 4.623c.244 0 .445-.02.604-.061a1.12 1.12 0 0 0 .382-.166c.096-.07.163-.153.2-.249a.89.89 0 0 0 .055-.322c0-.251-.118-.46-.355-.626s-.643-.346-1.22-.538l-.754-.305c-.251-.114-.477-.259-.676-.432a2.07 2.07 0 0 1-.488-.632c-.126-.248-.188-.549-.188-.904a2.24 2.24 0 0 1 .2-.959c.133-.285.322-.526.565-.726s.539-.353.887-.46a3.98 3.98 0 0 1 1.175-.161c.517 0 .964.055 1.341.166s.687.233.931.366l-.499 1.364c-.214-.111-.453-.209-.715-.294s-.578-.128-.948-.128c-.414 0-.711.057-.892.172a.58.58 0 0 0-.272.527c0 .14.033.259.1.355a.97.97 0 0 0 .283.261 2.49 2.49 0 0 0 .421.211l.526.194 1.042.438c.296.144.541.312.737.504s.342.418.438.676.144.573.144.942c0 .717-.251 1.273-.754 1.668s-1.26.593-2.273.593a6.24 6.24 0 0 1-.92-.061 5.83 5.83 0 0 1-.726-.15 4.15 4.15 0 0 1-.543-.189l-.383-.188.488-1.375c.229.126.512.238.848.338s.748.15 1.236.15zm9.5 1.319l-.272-.82-.294-.842h-2.993l-.294.842-.272.82h-1.796l.82-2.295.759-1.984.732-1.768.748-1.635h1.652l.743 1.635.737 1.768.759 1.984.82 2.295h-1.851zm-2.073-5.942l-.166.454-.255.665-.316.831-.349.953h2.184l-.344-.953-.316-.831-.26-.665-.177-.454zm7.483 6.042a20.32 20.32 0 0 1-1.258-.039c-.418-.026-.852-.087-1.303-.183v-7.45c.355-.067.743-.116 1.164-.15l1.175-.05c.488 0 .937.035 1.347.105s.763.19 1.059.36.527.393.693.671.249.619.249 1.025c0 .613-.296 1.098-.887 1.452.488.185.82.436.998.754a2.16 2.16 0 0 1 .266 1.075c0 .806-.294 1.412-.881 1.818s-1.462.61-2.622.61zm-.876-3.448v1.984l.41.033.488.011c.517 0 .935-.074 1.253-.222s.477-.421.477-.82c0-.355-.133-.608-.399-.759s-.647-.227-1.142-.227h-1.086zm0-1.319h.843c.532 0 .913-.068 1.142-.205s.344-.357.344-.66c0-.31-.118-.528-.355-.654s-.584-.189-1.042-.189l-.477.006-.454.028v1.674zm10.897 3.182v1.486h-5.133V25.66h1.729v6.197h3.403zm6.252 1.486l-.272-.82-.294-.842H95.34l-.294.842-.272.82h-1.796l.82-2.295.759-1.984.732-1.768.748-1.635h1.652l.743 1.635.737 1.768.759 1.984.82 2.295h-1.851zM96.824 27.4l-.166.454-.255.665-.316.831-.349.953h2.184l-.344-.953-.316-.831-.261-.665-.177-.454zm10.077 5.942l-1.607-2.605a26.46 26.46 0 0 0-1.841-2.428v5.033h-1.707V25.66h1.408a13.36 13.36 0 0 1 .809.898l.904 1.136.914 1.253.854 1.247V25.66h1.718v7.682h-1.452zm6.729.155c-1.249 0-2.201-.347-2.855-1.042s-.981-1.681-.981-2.96c0-.636.1-1.203.3-1.702a3.68 3.68 0 0 1 .82-1.264c.347-.344.761-.604 1.242-.782s1.001-.266 1.563-.266c.325 0 .62.024.886.072s.499.103.699.166a3.46 3.46 0 0 1 .499.194l.288.155-.499 1.397c-.236-.126-.512-.233-.826-.321a3.97 3.97 0 0 0-1.07-.133 2.36 2.36 0 0 0-.781.133 1.76 1.76 0 0 0-.676.427 2.12 2.12 0 0 0-.471.759c-.119.31-.178.687-.178 1.131 0 .355.039.685.117.992a2.12 2.12 0 0 0 .376.793 1.81 1.81 0 0 0 .682.527c.281.129.621.194 1.02.194a4.65 4.65 0 0 0 .676-.044l.532-.105c.156-.041.292-.087.411-.139l.321-.144.477 1.386c-.244.148-.588.281-1.031.399s-.957.177-1.541.177zm8.824-.155l-.272-.82-.293-.842h-2.993l-.294.842-.272.82h-1.796l.821-2.295.759-1.984.732-1.768.748-1.635h1.652l.742 1.635.738 1.768.759 1.984.82 2.295h-1.851zm-2.073-5.942l-.166.454-.255.665-.316.831-.349.953h2.184l-.344-.953-.316-.831-.261-.665-.177-.454zm13.281-1.74v1.474h-2.317v6.208h-1.73v-6.208h-2.317V25.66h6.364zm6.252 7.682l-.272-.82-.293-.842h-2.994l-.293.842-.272.82h-1.796l.821-2.295.759-1.984.732-1.768.748-1.635h1.652l.742 1.635.737 1.768.76 1.984.82 2.295h-1.851zm-2.073-5.942l-.166.454-.255.665-.316.831-.35.953h2.184l-.343-.953-.316-.831-.261-.665-.177-.454zm9.334 5.942l-.704-1.303a15.88 15.88 0 0 0-.881-1.347l-.394.554-.477.754-.448.765-.311.576h-1.973l1.136-1.885 1.447-2.095-2.472-3.703h2.095l1.496 2.395 1.464-2.395h1.973l-2.439 3.725 1.563 2.234.998 1.724h-2.073zm3.071-7.682h1.729v7.682h-1.729V25.66z"/></g></g><defs><clipPath id="A"><path fill="#fff" transform="translate(0 .563)" d="M0 0h156.496v40H0z"/></clipPath></defs></svg>