<svg xmlns="http://www.w3.org/2000/svg" width="80" height="80" fill="none" xmlns:v="https://vecta.io/nano"><path d="M33.633 60.267c14.709 0 26.633-11.924 26.633-26.633S48.343 7 33.633 7 7 18.924 7 33.633s11.924 26.633 26.633 26.633z" stroke="#fff" stroke-width="2" stroke-linejoin="round"/><path d="M73.067 55.834c-1.1 8.867-8.367 16.133-17.233 17.233-5.367.667-10.367-.8-14.267-3.667-2.233-1.633-1.7-5.1.967-5.9 10.033-3.033 17.933-10.967 21-21 .8-2.633 4.267-3.167 5.9-.967 2.833 3.933 4.3 8.933 3.633 14.3z" fill="#ff6314"/><g fill="#fff"><path d="M45.967 30.817l-.589-.623-2.065-5.567c-.352-.94-1.252-1.563-2.256-1.569H26.306c-1.004 0-1.904.629-2.256 1.569l-2.037 5.498-.848.785c-.739.629-1.165 1.552-1.165 2.521v8.112c.006 1.327 1.085 2.4 2.412 2.4h1.523c1.327 0 2.406-1.073 2.412-2.4v-1.177h14.308v1.177c.006 1.327 1.085 2.4 2.412 2.4h1.523c1.327 0 2.406-1.073 2.411-2.4v-8.325c-.006-.906-.375-1.771-1.033-2.4zm-20.833-5.798c.185-.49.652-.808 1.171-.808h14.758c.519 0 .986.323 1.171.808l1.8 4.846H42.69c-.317-2.163-2.331-3.658-4.494-3.335-1.725.254-3.081 1.61-3.335 3.335H23.335l1.8-4.846zm16.379 4.846h-5.487c.317-1.517 1.806-2.486 3.323-2.169a2.81 2.81 0 0 1 2.163 2.169zM25.192 41.542c-.006.692-.565 1.246-1.258 1.246h-1.523c-.692 0-1.252-.554-1.258-1.246v-1.512c.346.225.802.335 1.258.335h2.781v1.177zm20.654 0c-.006.692-.565 1.246-1.258 1.246h-1.523a1.26 1.26 0 0 1-1.258-1.246v-1.177h2.781c.456 0 .911-.11 1.258-.335v1.512zm-1.258-2.331H22.412c-.686.006-1.252-.542-1.258-1.235v-4.546c0-.635.283-1.24.767-1.65l.023-.023.785-.738h21.848l.554.594c.006.012.023.017.029.029.433.41.681.981.681 1.575v4.76h.006a1.25 1.25 0 0 1-1.258 1.235z"/><use href="#B"/><use href="#B" x="16.097"/><use href="#C"/><use href="#C" y="-1.788"/></g><defs ><path id="B" d="M27.615 33.327h-4.327a.58.58 0 0 0-.577.577v3a.58.58 0 0 0 .577.577h4.327a.58.58 0 0 0 .577-.577v-3a.58.58 0 0 0-.577-.577zm-.577 3h-3.173v-1.846h3.173v1.846z"/><path id="C" d="M36.287 35.75h-5.573a.58.58 0 0 0-.577.577.58.58 0 0 0 .577.577h5.573a.58.58 0 0 0 .577-.577.58.58 0 0 0-.577-.577z"/></defs></svg>