<svg xmlns="http://www.w3.org/2000/svg" width="80" height="80" fill="none"><path stroke="#fff" stroke-linejoin="round" stroke-width="2" d="M33.633 60.267c14.709 0 26.633-11.924 26.633-26.633S48.343 7 33.633 7 7 18.924 7 33.633s11.924 26.633 26.633 26.633z"/><path fill="#ff6314" d="M73.067 55.834c-1.1 8.867-8.367 16.133-17.233 17.233-5.367.667-10.367-.8-14.267-3.667-2.233-1.633-1.7-5.1.967-5.9 10.033-3.033 17.933-10.967 21-21 .8-2.633 4.267-3.167 5.9-.967 2.833 3.933 4.3 8.933 3.633 14.3z"/><g fill="#fff"><path d="m45.967 30.817-.589-.623-2.065-5.567a2.42 2.42 0 0 0-2.256-1.569H26.306a2.415 2.415 0 0 0-2.256 1.569l-2.037 5.498-.848.785A3.31 3.31 0 0 0 20 33.431v8.112a2.41 2.41 0 0 0 2.412 2.4h1.523a2.41 2.41 0 0 0 2.412-2.4v-1.177h14.308v1.177a2.41 2.41 0 0 0 2.412 2.4h1.523a2.41 2.41 0 0 0 2.411-2.4v-8.325a3.35 3.35 0 0 0-1.033-2.4zm-20.833-5.798c.185-.49.652-.808 1.171-.808h14.758c.519 0 .986.323 1.171.808l1.8 4.846H42.69a3.95 3.95 0 0 0-4.494-3.335 3.95 3.95 0 0 0-3.335 3.335H23.335l1.8-4.846zm16.379 4.846h-5.487a2.806 2.806 0 0 1 3.323-2.169 2.81 2.81 0 0 1 2.163 2.169zM25.192 41.542a1.255 1.255 0 0 1-1.258 1.246h-1.523a1.255 1.255 0 0 1-1.258-1.246V40.03c.346.225.802.335 1.258.335h2.781zm20.654 0a1.255 1.255 0 0 1-1.258 1.246h-1.523a1.26 1.26 0 0 1-1.258-1.246v-1.177h2.781c.456 0 .911-.11 1.258-.335zm-1.258-2.331H22.412a1.245 1.245 0 0 1-1.258-1.235V33.43c0-.635.283-1.24.767-1.65l.023-.023.785-.738h21.848l.554.594c.006.012.023.017.029.029.433.41.681.981.681 1.575v4.76h.006a1.25 1.25 0 0 1-1.258 1.235z"/><use href="#a"/><use x="16.097" href="#a"/><use href="#b"/><use y="-1.788" href="#b"/></g><defs><path id="a" d="M27.615 33.327h-4.327a.58.58 0 0 0-.577.577v3a.58.58 0 0 0 .577.577h4.327a.58.58 0 0 0 .577-.577v-3a.58.58 0 0 0-.577-.577m-.577 3h-3.173v-1.846h3.173z"/><path id="b" d="M36.287 35.75h-5.573a.58.58 0 0 0-.577.577.58.58 0 0 0 .577.577h5.573a.58.58 0 0 0 .577-.577.58.58 0 0 0-.577-.577"/></defs></svg>