<svg xmlns="http://www.w3.org/2000/svg" width="80" height="80" fill="none"><path fill="#ff6314" d="M73.333 28.333c0 10.867-8 19.833-18.4 21.4v-.2C53.9 36.6 43.4 26.1 30.367 25.067h-.1c1.567-10.4 10.533-18.4 21.4-18.4a21.67 21.67 0 0 1 21.667 21.667z"/><path stroke="#fff" stroke-linejoin="round" stroke-width="2" d="M50.333 51.667a21.67 21.67 0 0 1-21.667 21.667A21.67 21.67 0 0 1 7 51.667 21.67 21.67 0 0 1 28.667 30a30 30 0 0 1 1.733.067c10.567.833 19.033 9.3 19.867 19.867.033.567.067 1.167.067 1.733z"/><g stroke="#fff" stroke-linejoin="round" stroke-miterlimit="10" stroke-width="1.5" clip-path="url(#a)"><path d="M36.461 47.273H21.539a1.953 1.953 0 0 1-1.953-1.953v-2.734h18.828v2.734a1.953 1.953 0 0 1-1.953 1.953zM21.578 47.273v2.031c0 1.23.579 2.387 1.563 3.125v3.125A5.86 5.86 0 0 0 29 61.414a5.86 5.86 0 0 0 5.859-5.859V52.43a3.9 3.9 0 0 0 1.563-3.125v-2.031z"/><path d="M29 56.727a1.17 1.17 0 1 0 0-2.344 1.17 1.17 0 1 0 0 2.344z"/><path stroke-linecap="round" d="M26.656 49.695h4.688"/></g><defs><clipPath id="a"><path fill="#fff" d="M19 42h20v20H19z"/></clipPath></defs></svg>