<svg xmlns="http://www.w3.org/2000/svg" width="80" height="80" fill="none" xmlns:v="https://vecta.io/nano"><path d="M60.267 35.967V49.3c0 .867-.033 1.7-.133 2.5-.767 9-6.067 13.467-15.833 13.467h-1.333c-.833 0-1.633.4-2.133 1.067l-4 5.333c-1.767 2.367-4.633 2.367-6.4 0l-4-5.333c-.433-.567-1.4-1.067-2.133-1.067h-1.333C12.333 65.267 7 62.633 7 49.3V35.967C7 26.2 11.5 20.9 20.467 20.133c.8-.1 1.633-.133 2.5-.133H44.3c10.633 0 15.967 5.333 15.967 15.967z" stroke="#fff" stroke-width="2" stroke-miterlimit="10" stroke-linejoin="round"/><path d="M73.266 22.633v13.333c0 6.667-2.067 11.2-6.2 13.7-1 .6-2.167-.2-2.167-1.367l.033-12.333C64.933 22.633 57.299 15 43.966 15l-20.3.033c-1.167 0-1.967-1.167-1.367-2.167 2.5-4.133 7.033-6.2 13.667-6.2h21.333c10.633 0 15.967 5.333 15.967 15.967z" fill="#ff6314"/><path d="M36.6 34.8h-.5c-.65-2.1-2.6-3.55-4.85-3.55-2.8 0-5.1 2.3-5.1 5.2 0 .9.25 1.75.65 2.55-1.55 1.1-2.5 2.9-2.5 4.9 0 3.3 2.65 5.95 5.9 5.95.55 0 .95 0 1.3-.1v4.05c0 .55.45 1 1 1s1-.45 1-1v-4.2c.85.2 1.85.25 2.85.25 2.8 0 5.1-2.3 5.1-5.2 0-.7-.15-1.4-.4-2.05a5.38 5.38 0 0 0 .7-2.65c-.05-2.85-2.35-5.15-5.15-5.15zM39 43a3.1 3.1 0 0 1 .45 1.6c0 1.8-1.4 3.2-3.15 3.2-1.65 0-2.45-.15-2.85-.3v-1.9c1.25-.5 3.7-1.95 4.3-5.2.1-.55-.25-1.05-.8-1.15s-1.05.25-1.15.8c-.35 1.8-1.45 2.8-2.4 3.35v-5.25c0-.55-.45-1-1-1s-1 .45-1 1v4.15c-.15-.1-.35-.25-.45-.5-.2-.5-.8-.75-1.3-.55s-.75.8-.55 1.3c.5 1.15 1.4 1.65 2.25 1.8v3.2c-.35.25-.5.25-1.3.25-2.15 0-3.9-1.8-3.9-4 0-1.6.95-3.05 2.35-3.7.3-.15.5-.4.55-.7s0-.65-.25-.85a3.28 3.28 0 0 1-.85-2.2c0-1.8 1.4-3.2 3.15-3.2 1.6 0 2.95 1.25 3.15 2.85.05.3.2.55.45.7s.55.2.85.1a2.91 2.91 0 0 1 .95-.15c1.75 0 3.15 1.45 3.15 3.2A3.38 3.38 0 0 1 39 41.8c-.15.45-.2.9 0 1.2z" fill="#fff"/></svg>