<svg xmlns="http://www.w3.org/2000/svg" width="80" height="80" fill="none" xmlns:v="https://vecta.io/nano"><g clip-path="url(#A)" fill="#ff6314"><path d="M53.333 35.509c-.736 0-1.333-.597-1.333-1.333a13.91 13.91 0 0 0-4.1-9.9 1.333 1.333 0 1 1 1.885-1.885c3.148 3.148 4.881 7.333 4.881 11.785 0 .736-.597 1.333-1.333 1.333zm-26.666 0c-.736 0-1.333-.597-1.333-1.333 0-4.452 1.733-8.637 4.881-11.785a1.333 1.333 0 1 1 1.885 1.885c-2.644 2.644-4.1 6.16-4.1 9.9 0 .736-.597 1.333-1.333 1.333zm25.838 8.042a8.93 8.93 0 0 1-3.172-6.833V33c0-4.692-3.485-8.576-8-9.227v-1.44c0-.737-.597-1.333-1.333-1.333s-1.333.596-1.333 1.333v1.44c-4.516.651-8 4.535-8 9.227v3.717a8.94 8.94 0 0 1-3.184 6.844 2.33 2.33 0 0 0-.816 1.772c0 1.287 1.047 2.333 2.333 2.333h22c1.287 0 2.333-1.047 2.333-2.333a2.34 2.34 0 0 0-.828-1.783zM40 53a5.01 5.01 0 0 0 4.899-4h-9.797A5.01 5.01 0 0 0 40 53z"/></g><path d="M60 63.167h-2.533c-2.667 0-5.2 1.033-7.067 2.9L44.7 71.7c-2.6 2.567-6.833 2.567-9.433 0l-5.7-5.634c-1.867-1.867-4.433-2.9-7.067-2.9H20c-5.533 0-10-4.433-10-9.9V16.9C10 11.433 14.467 7 20 7h40c5.533 0 10 4.433 10 9.9v36.367c0 5.433-4.467 9.9-10 9.9z" stroke="#fff" stroke-width="2" stroke-miterlimit="10" stroke-linejoin="round"/><defs><clipPath id="A"><path fill="#fff" transform="translate(24 21)" d="M0 0h32v32H0z"/></clipPath></defs></svg>