<svg xmlns="http://www.w3.org/2000/svg" width="80" height="80" fill="none"><g fill="#ff6314" clip-path="url(#a)"><path d="M53.333 35.509A1.333 1.333 0 0 1 52 34.176a13.9 13.9 0 0 0-4.1-9.9 1.333 1.333 0 1 1 1.885-1.885 16.56 16.56 0 0 1 4.881 11.785c0 .736-.597 1.333-1.333 1.333m-26.666 0a1.333 1.333 0 0 1-1.333-1.333c0-4.452 1.733-8.637 4.881-11.785a1.333 1.333 0 1 1 1.885 1.885 13.9 13.9 0 0 0-4.1 9.9c0 .736-.597 1.333-1.333 1.333m25.838 8.042a8.93 8.93 0 0 1-3.172-6.833V33c0-4.692-3.485-8.576-8-9.227v-1.44a1.333 1.333 0 1 0-2.666 0v1.44c-4.516.651-8 4.535-8 9.227v3.717a8.94 8.94 0 0 1-3.184 6.844 2.33 2.33 0 0 0-.816 1.772A2.336 2.336 0 0 0 29 47.666h22a2.336 2.336 0 0 0 2.333-2.333 2.34 2.34 0 0 0-.828-1.783zM40 53a5.01 5.01 0 0 0 4.899-4h-9.797A5.01 5.01 0 0 0 40 53"/></g><path stroke="#fff" stroke-linejoin="round" stroke-miterlimit="10" stroke-width="2" d="M60 63.167h-2.533c-2.667 0-5.2 1.033-7.067 2.9L44.7 71.7c-2.6 2.567-6.833 2.567-9.433 0l-5.7-5.634c-1.867-1.867-4.433-2.9-7.067-2.9H20c-5.533 0-10-4.433-10-9.9V16.9C10 11.433 14.467 7 20 7h40c5.533 0 10 4.433 10 9.9v36.367c0 5.433-4.467 9.9-10 9.9z"/><defs><clipPath id="a"><path fill="#fff" d="M24 21h32v32H24z"/></clipPath></defs></svg>