<svg xmlns="http://www.w3.org/2000/svg" width="60" fill="none" height="60" xmlns:v="https://vecta.io/nano"><g stroke="#fff" stroke-width="1.5"><path d="M20.75 28.5c0 1.925 1.5 3.5 3.325 3.5h3.75c1.6 0 2.9-1.375 2.9-3.05 0-1.825-.8-2.475-1.975-2.9l-6-2.1c-1.2-.425-2-1.075-2-2.9 0-1.675 1.3-3.05 2.9-3.05h3.75c1.85.025 3.35 1.575 3.35 3.5m-4.999 10.625v1.85m0-17.95v1.95" stroke-linecap="round" stroke-linejoin="round"/><path d="M25.725 44.95A19.98 19.98 0 0 0 45.7 24.975 19.98 19.98 0 0 0 25.725 5 19.98 19.98 0 0 0 5.75 24.975 19.98 19.98 0 0 0 25.725 44.95z" stroke-linejoin="round"/></g><path d="M55.55 41.875c-.825 6.65-6.275 12.1-12.925 12.925-4.025.5-7.775-.6-10.7-2.75-1.675-1.225-1.275-3.825.725-4.425C40.175 45.35 46.1 39.4 48.4 31.875c.6-1.975 3.2-2.375 4.425-.725 2.125 2.95 3.225 6.7 2.725 10.725z" fill="#ff6314"/></svg>