<svg xmlns="http://www.w3.org/2000/svg" width="800" height="800" fill="none"><path fill="#bfc8d0" fill-rule="evenodd" d="M400 775c193.3 0 350-156.7 350-350S593.3 75 400 75 50 231.7 50 425c0 62.75 16.525 121.675 45.45 172.625L50 775l182.875-42.4A348.5 348.5 0 0 0 400 775m0-53.85c163.575 0 296.15-132.575 296.15-296.15 0-163.55-132.575-296.15-296.15-296.15-163.55 0-296.15 132.6-296.15 296.15 0 63.15 19.75 121.7 53.45 169.75l-26.55 99.5 101.225-25.325a295 295 0 0 0 168 52.25"/><path fill="url(#a)" d="M700 400c0 165.675-134.325 300-300 300-63.2 0-121.825-19.55-170.175-52.9L127.25 672.725l26.875-100.75A298.75 298.75 0 0 1 100 400c0-165.675 134.325-300 300-300s300 134.325 300 300"/><g fill="#fff"><path fill-rule="evenodd" d="M400 750c193.3 0 350-156.7 350-350S593.3 50 400 50 50 206.7 50 400c0 62.75 16.525 121.675 45.45 172.625L50 750l182.875-42.4A348.5 348.5 0 0 0 400 750m0-53.85c163.575 0 296.15-132.575 296.15-296.15 0-163.55-132.575-296.15-296.15-296.15-163.55 0-296.15 132.6-296.15 296.15 0 63.15 19.75 121.7 53.45 169.75l-26.55 99.5 101.225-25.325a295 295 0 0 0 168 52.25"/><path d="M312.5 237.5c-8.325-16.725-21.1-15.25-34-15.25-23.025 0-58.975 27.625-58.975 79 0 42.1 18.55 88.2 81.075 157.15 60.35 66.55 139.625 100.975 205.45 99.8s79.375-57.825 79.375-76.95c0-8.475-5.25-12.7-8.9-13.85l-73.2-34.6c-9.425-3.75-14.325 1.35-17.375 4.125-8.55 8.125-25.475 32.1-31.25 37.5s-14.45 2.65-18.025.6c-13.25-5.3-49.1-21.25-77.675-48.95C323.625 391.8 321.55 380 314.9 369.5c-5.325-8.4-1.425-13.55.525-15.8 7.625-8.775 18.15-22.35 22.85-29.1s1-16.975-1.25-23.35c-9.675-27.425-17.875-50.375-24.525-63.75"/></g><defs><linearGradient id="a" x1="662.5" x2="100" y1="175" y2="700" gradientUnits="userSpaceOnUse"><stop stop-color="#ff6314"/></linearGradient></defs></svg>