<svg xmlns="http://www.w3.org/2000/svg" width="157" height="41" fill="none"><g clip-path="url(#a)"><path fill="#ff6314" d="M25.209.563C15.864.563 8.073 7.318 6.446 16.2 1.194 20.809-1.002 25.101.427 27.994c.997 2.019 3.6 3.034 7.304 3.034a24 24 0 0 0 2.101-.107c3.476 4.727 9.073 7.802 15.377 7.802 10.52 0 19.08-8.56 19.08-19.08S35.73.563 25.209.563m13.308 6.914c-1.343.572-2.883 1.051-4.578 1.418-1.128-3.009-2.719-5.375-4.582-6.807a18.05 18.05 0 0 1 9.16 5.388zM25.691 1.629c2.913.288 5.54 3.174 7.199 7.48-2.234.413-4.68.642-7.199.669zm-4.589.451c-1.872 1.439-3.469 3.82-4.604 6.823-1.702-.368-3.247-.851-4.596-1.426a18.05 18.05 0 0 1 9.2-5.397m3.55-.443v8.139c-2.506-.03-4.935-.26-7.152-.671 1.626-4.271 4.212-7.144 7.152-7.468M7.192 18.734a17.95 17.95 0 0 1 4.001-10.431c1.441.643 3.113 1.179 4.957 1.585-.862 2.612-1.39 5.625-1.475 8.846zm8.738 9.993c-2.009.536-3.899.9-5.61 1.088a17.94 17.94 0 0 1-3.148-10.041h7.492c.012 3.238.469 6.285 1.266 8.953M1.36 27.534c-1.091-2.208.766-5.868 4.861-9.722q-.089.905-.09 1.831c0 3.781 1.11 7.305 3.015 10.274-4.007.261-6.871-.532-7.785-2.383zm9.68 3.254a40 40 0 0 0 5.21-1.068c1.134 3.304 2.811 5.933 4.816 7.478a18.07 18.07 0 0 1-10.026-6.41m14.652 6.884v-4.211a2.1 2.1 0 0 1-.675.57l-.364.192v3.425c-3.071-.351-5.776-3.57-7.387-8.215a56 56 0 0 0 1.709-.531l.229.437a.52.52 0 0 0 .46.277.5.5 0 0 0 .127-.016l1.266-.32 1.852 3.511a.52.52 0 0 0 .702.217l.68-.358a.52.52 0 0 0 .277-.458l.016-3.812a6.4 6.4 0 0 0 1.223-.493l1.55-.816 1.762 8.307a.52.52 0 0 0 .288.363.5.5 0 0 0 .221.049.5.5 0 0 0 .242-.06l2.112-1.112a.52.52 0 0 0 .274-.398l1.252-10.386 1.839-.968c.628-.33 1.332-1.022 1.881-1.849.441-.664.9-1.583.58-2.19-.332-.63-1.34-.763-2.128-.763s-1.91.144-2.68.55l-1.752.922-9.27-4.85a.52.52 0 0 0-.483.001l-2.112 1.111a.52.52 0 0 0-.135.818l5.849 6.158-1.55.816a6.4 6.4 0 0 0-1.115.742l-3.113-2.12a.52.52 0 0 0-.534-.031l-.68.358a.52.52 0 0 0-.219.702l1.825 3.476-.981.862a.51.51 0 0 0-.169.369q-.816.265-1.612.496c-.779-2.586-1.232-5.548-1.244-8.671h4.389l-.988-1.04h-3.391c.083-3.162.599-6.11 1.435-8.64 2.327.442 4.875.691 7.504.722v3.513l1.04.544v-4.056c2.642-.028 5.211-.276 7.556-.72.65 1.944 1.109 4.137 1.326 6.482a9 9 0 0 1 1.038-.069c-.217-2.399-.675-4.635-1.327-6.627 1.838-.405 3.508-.938 4.943-1.577a17.95 17.95 0 0 1 3.999 10.428h-3.82a2.8 2.8 0 0 1 .026 1.04h3.814a17.96 17.96 0 0 1-4.282 11.524c-1.345-.575-2.9-1.07-4.611-1.452l-.125 1.036c1.47.334 2.816.751 4 1.231-3.183 3.32-7.616 5.428-12.537 5.558zm.36-15.399-5.579-5.872 1.262-.664 8.392 4.392-4.076 2.145zm7.43-2.736c.489-.257 1.372-.43 2.196-.43.707 0 1.091.128 1.198.206.014.469-1.013 2.11-2.015 2.636l-2.078 1.094-5.304 2.791-2.158 1.136a5.3 5.3 0 0 1-1.234.473l-3.998 1.01-.184-.524 3.034-2.667a5.3 5.3 0 0 1 1.089-.75l9.452-4.975zm-1.093 4.888-1.133 9.403-1.263.664-1.68-7.923zm-8.845 4.227-.013 3.089-1.437-2.723zm-3.031-2.64-1.411-2.687 2.518 1.714z"/><path fill="#fff" d="m62.504 22.246-.569-1.717-.615-1.764h-6.267l-.615 1.764-.569 1.717h-3.76l1.717-4.804 1.59-4.155 1.532-3.702 1.567-3.423h3.458l1.555 3.423 1.544 3.702 1.59 4.155 1.718 4.804zm-4.34-12.44-.348.952-.534 1.393-.661 1.741-.731 1.996h4.572l-.72-1.996-.661-1.741-.545-1.393zm10.305-3.644h3.621v16.084h-3.621zm12.046-.186q3.621 0 5.547 1.288c1.926 1.288 1.926 2.193 1.926 4.004q0 1.694-.777 2.75c-.777 1.056-1.265 1.257-2.24 1.659l1.021 1.381 1.056 1.625 1.01 1.764.905 1.799h-4.062l-.894-1.601-.928-1.578-.94-1.451-.928-1.242h-1.787v5.872h-3.621V6.394a21 21 0 0 1 2.448-.325l2.263-.093zm.209 3.087-.708.023-.592.046v4.363h1.021q2.042 0 2.924-.511c.882-.511.882-.921.882-1.741q0-1.184-.894-1.683c-.894-.499-1.474-.499-2.634-.499zm15.388-3.087q3.597 0 5.524 1.265c1.927 1.265 1.926 2.224 1.926 4.143q0 2.9-1.949 4.189c-1.949 1.289-3.157 1.288-5.57 1.288h-1.137v5.384h-3.621V6.394a20.5 20.5 0 0 1 2.507-.325l2.321-.093zm.232 3.087-.778.023-.661.046v4.642h1.137q1.88 0 2.831-.511c.951-.511.952-.975.952-1.903q0-.673-.244-1.114a1.86 1.86 0 0 0-.696-.708q-.452-.267-1.102-.371c-.65-.104-.913-.104-1.439-.104m12.928 5.129q0 1.184.29 2.135c.29.951.472 1.18.836 1.636a3.7 3.7 0 0 0 1.334 1.056q.79.371 1.81.371.999 0 1.799-.371c.8-.371.983-.599 1.346-1.056s.642-1.002.836-1.636.29-1.346.29-2.135-.097-1.505-.29-2.147-.472-1.191-.836-1.648a3.7 3.7 0 0 0-1.346-1.056q-.8-.372-1.799-.371-1.02 0-1.81.383a3.8 3.8 0 0 0-1.334 1.068 4.9 4.9 0 0 0-.836 1.648 7.4 7.4 0 0 0-.29 2.124zm12.278 0q0 2.066-.615 3.632c-.615 1.566-.971 1.919-1.683 2.623a6.9 6.9 0 0 1-2.542 1.59 9.2 9.2 0 0 1-3.168.534 9 9 0 0 1-3.11-.534q-1.461-.534-2.553-1.59c-1.092-1.056-1.299-1.578-1.717-2.623s-.627-2.255-.627-3.632.217-2.588.65-3.632 1.017-1.922 1.752-2.634a7.2 7.2 0 0 1 2.553-1.601 8.8 8.8 0 0 1 3.052-.534 9 9 0 0 1 3.11.534 7.1 7.1 0 0 1 2.553 1.601q1.091 1.068 1.718 2.634c.627 1.566.627 2.255.627 3.632m7.728-8.216q3.621 0 5.547 1.288c1.926 1.288 1.927 2.193 1.927 4.004q0 1.694-.778 2.75c-.778 1.056-1.265 1.257-2.24 1.659l1.022 1.381 1.056 1.625 1.009 1.764.905 1.799h-4.061l-.894-1.601-.928-1.578-.94-1.451-.928-1.242h-1.788v5.872h-3.62V6.394a21 21 0 0 1 2.448-.325zm.209 3.087-.708.023-.592.046v4.363h1.022q2.042 0 2.924-.511c.882-.511.882-.921.882-1.741q0-1.184-.894-1.683c-.894-.499-1.473-.499-2.634-.499zm22.49-2.901v3.087h-4.851v12.997h-3.62V9.249h-4.851V6.162zM53.946 33.496q-1.873 0-2.855-1.042c-.982-1.042-.981-1.681-.981-2.96q0-.954.299-1.702c.299-.748.473-.92.82-1.264a3.4 3.4 0 0 1 1.242-.782 4.5 4.5 0 0 1 1.563-.266q.488 0 .887.072c.399.072.499.103.698.166a3.4 3.4 0 0 1 .499.194l.288.155-.499 1.397a4 4 0 0 0-.826-.321 4 4 0 0 0-1.07-.133 2.4 2.4 0 0 0-.782.133 1.8 1.8 0 0 0-.676.427q-.294.294-.471.759c-.177.465-.177.687-.177 1.131q0 .532.116.992c.116.46.203.571.377.793a1.8 1.8 0 0 0 .682.527q.422.194 1.02.194.377 0 .676-.044l.532-.105q.233-.061.41-.139l.322-.144.477 1.386q-.366.222-1.031.399c-.665.177-.957.177-1.541.177zm8.824-.155-.272-.82-.294-.842h-2.993l-.294.842-.272.82H56.85l.82-2.295.759-1.984.732-1.768.748-1.635h1.652l.743 1.635.737 1.768.759 1.984.82 2.295zm-2.073-5.942-.166.454-.255.665-.316.831-.349.953h2.184l-.344-.953-.316-.831-.261-.665zm7.017 4.623q.366 0 .604-.061a1.1 1.1 0 0 0 .382-.166.56.56 0 0 0 .2-.249.9.9 0 0 0 .055-.322q0-.377-.355-.626c-.355-.249-.643-.346-1.22-.538l-.754-.305a2.8 2.8 0 0 1-.676-.432 2.1 2.1 0 0 1-.488-.632q-.189-.372-.188-.904a2.24 2.24 0 0 1 .2-.959q.2-.427.565-.726c.365-.299.539-.353.887-.46a4 4 0 0 1 1.175-.161q.775 0 1.341.166c.566.166.687.233.931.366l-.499 1.364q-.322-.166-.715-.294c-.393-.128-.578-.128-.948-.128q-.62 0-.892.172a.58.58 0 0 0-.272.527q0 .21.1.355a1 1 0 0 0 .283.261 2.5 2.5 0 0 0 .421.211l.526.194 1.042.438q.444.216.737.504c.293.288.342.418.438.676s.144.573.144.942q0 1.075-.754 1.668c-.754.593-1.26.593-2.273.593a6 6 0 0 1-.92-.061 6 6 0 0 1-.726-.15 4 4 0 0 1-.543-.189l-.383-.188.488-1.375q.344.189.848.338c.504.149.748.15 1.236.15zm9.5 1.319-.272-.82-.294-.842h-2.993l-.294.842-.272.82h-1.796l.82-2.295.759-1.984.732-1.768.748-1.635h1.652l.743 1.635.737 1.768.759 1.984.82 2.295h-1.851zm-2.073-5.942-.166.454-.255.665-.316.831-.349.953h2.184l-.344-.953-.316-.831-.26-.665zm7.483 6.042a20 20 0 0 1-1.258-.039 9 9 0 0 1-1.303-.183v-7.45q.532-.1 1.164-.15l1.175-.05q.732 0 1.347.105c.615.105.763.19 1.059.36s.527.393.693.671.249.619.249 1.025q0 .92-.887 1.452.731.277.998.754a2.16 2.16 0 0 1 .266 1.075q0 1.209-.881 1.818c-.881.609-1.462.61-2.622.61zm-.876-3.448v1.984l.41.033.488.011q.776 0 1.253-.222c.477-.222.477-.421.477-.82q0-.533-.399-.759c-.399-.226-.647-.227-1.142-.227h-1.086zm0-1.319h.843q.798 0 1.142-.205c.344-.205.344-.357.344-.66q0-.465-.355-.654c-.355-.189-.584-.189-1.042-.189l-.477.006-.454.028zm10.897 3.182v1.486h-5.133V25.66h1.729v6.197zm6.252 1.486-.272-.82-.294-.842H95.34l-.294.842-.272.82h-1.796l.82-2.295.759-1.984.732-1.768.748-1.635h1.652l.743 1.635.737 1.768.759 1.984.82 2.295zM96.824 27.4l-.166.454-.255.665-.316.831-.349.953h2.184l-.344-.953-.316-.831-.261-.665zm10.077 5.942-1.607-2.605a27 27 0 0 0-1.841-2.428v5.033h-1.707V25.66h1.408a13 13 0 0 1 .809.898l.904 1.136.914 1.253.854 1.247V25.66h1.718v7.682zm6.729.155q-1.874 0-2.855-1.042c-.981-1.042-.981-1.681-.981-2.96q0-.954.3-1.702a3.7 3.7 0 0 1 .82-1.264q.52-.515 1.242-.782c.722-.267 1.001-.266 1.563-.266q.487 0 .886.072c.399.072.499.103.699.166a3.5 3.5 0 0 1 .499.194l.288.155-.499 1.397a4 4 0 0 0-.826-.321 4 4 0 0 0-1.07-.133 2.4 2.4 0 0 0-.781.133 1.76 1.76 0 0 0-.676.427 2.1 2.1 0 0 0-.471.759q-.178.465-.178 1.131 0 .532.117.992a2.1 2.1 0 0 0 .376.793 1.8 1.8 0 0 0 .682.527q.422.194 1.02.194a5 5 0 0 0 .676-.044l.532-.105q.233-.061.411-.139l.321-.144.477 1.386q-.366.222-1.031.399c-.665.177-.957.177-1.541.177m8.824-.155-.272-.82-.293-.842h-2.993l-.294.842-.272.82h-1.796l.821-2.295.759-1.984.732-1.768.748-1.635h1.652l.742 1.635.738 1.768.759 1.984.82 2.295zm-2.073-5.942-.166.454-.255.665-.316.831-.349.953h2.184l-.344-.953-.316-.831-.261-.665zm13.281-1.74v1.474h-2.317v6.208h-1.73v-6.208h-2.317V25.66zm6.252 7.682-.272-.82-.293-.842h-2.994l-.293.842-.272.82h-1.796l.821-2.295.759-1.984.732-1.768.748-1.635h1.652l.742 1.635.737 1.768.76 1.984.82 2.295zm-2.073-5.942-.166.454-.255.665-.316.831-.35.953h2.184l-.343-.953-.316-.831-.261-.665zm9.334 5.942-.704-1.303a16 16 0 0 0-.881-1.347l-.394.554-.477.754-.448.765-.311.576h-1.973l1.136-1.885 1.447-2.095-2.472-3.703h2.095l1.496 2.395 1.464-2.395h1.973l-2.439 3.725 1.563 2.234.998 1.724zm3.071-7.682h1.729v7.682h-1.729z"/></g><defs><clipPath id="a"><path fill="#fff" d="M0 .563h156.496v40H0z"/></clipPath></defs></svg>